<?xml version="1.0" encoding="UTF-8" standalone="no"?>
<!-- Created with Inkscape (http://www.inkscape.org/) -->

<svg
   xmlns:dc="http://purl.org/dc/elements/1.1/"
   xmlns:cc="http://creativecommons.org/ns#"
   xmlns:rdf="http://www.w3.org/1999/02/22-rdf-syntax-ns#"
   xmlns:svg="http://www.w3.org/2000/svg"
   xmlns="http://www.w3.org/2000/svg"
   xmlns:xlink="http://www.w3.org/1999/xlink"
   version="1.1"
   width="64"
   height="22"
   id="svg3273">
  <defs
     id="defs3275">
    <linearGradient
       id="linearGradient3777-8">
      <stop
         id="stop3779-4"
         style="stop-color:#3880ca;stop-opacity:1"
         offset="0" />
      <stop
         id="stop3781-3"
         style="stop-color:#6eabec;stop-opacity:1"
         offset="1" />
    </linearGradient>
    <linearGradient
       x1="-29.28952"
       y1="19.021994"
       x2="-29.594671"
       y2="6.0328393"
       id="linearGradient4214"
       xlink:href="#linearGradient3777-8"
       gradientUnits="userSpaceOnUse"
       gradientTransform="matrix(0.97877002,0,0,1.0061319,63.536749,-0.35604116)" />
    <linearGradient
       x1="-29.28952"
       y1="19.021994"
       x2="-29.594671"
       y2="6.0328393"
       id="linearGradient3099"
       xlink:href="#linearGradient3777-8-3"
       gradientUnits="userSpaceOnUse"
       gradientTransform="matrix(0.97877002,0,0,1.0061319,-0.45641549,-0.35604116)" />
    <linearGradient
       id="linearGradient3777-8-3">
      <stop
         id="stop3779-4-3"
         style="stop-color:#3880ca;stop-opacity:1"
         offset="0" />
      <stop
         id="stop3781-3-9"
         style="stop-color:#6eabec;stop-opacity:1"
         offset="1" />
    </linearGradient>
    <linearGradient
       x1="-29.28952"
       y1="19.021994"
       x2="-29.594671"
       y2="6.0328393"
       id="linearGradient4351"
       xlink:href="#linearGradient3777-8"
       gradientUnits="userSpaceOnUse"
       gradientTransform="matrix(0.97877002,0,0,1.0061319,-0.456415,-0.35604116)" />
    <linearGradient
       x1="-29.28952"
       y1="19.021994"
       x2="-29.594671"
       y2="6.0328393"
       id="linearGradient4369"
       xlink:href="#linearGradient3777-8-3"
       gradientUnits="userSpaceOnUse"
       gradientTransform="matrix(0.97877002,0,0,1.0061319,-3.4598336,29.177337)" />
  </defs>
  <metadata
     id="metadata3278">
    <rdf:RDF>
      <cc:Work
         rdf:about="">
        <dc:format>image/svg+xml</dc:format>
        <dc:type
           rdf:resource="http://purl.org/dc/dcmitype/StillImage" />
        <dc:title></dc:title>
      </cc:Work>
    </rdf:RDF>
  </metadata>
  <g
     id="g4375">
    <rect
       width="63.789986"
       height="21.973034"
       rx="4.0501571"
       ry="4.6259027"
       x="-63.891575"
       y="0.23010544"
       transform="scale(-1,1)"
       id="rect3807-1"
       style="opacity:0.10747663;color:#000000;fill:#000000;fill-opacity:1;stroke:none;stroke-width:0.99999994;marker:none;visibility:visible;display:inline;overflow:visible;enable-background:accumulate" />
    <rect
       width="62.412865"
       height="20.949207"
       rx="3.9627211"
       ry="4.4103599"
       x="-63.162514"
       y="0.70264041"
       transform="scale(-1,1)"
       id="rect3805-6"
       style="opacity:0.20093456;color:#000000;fill:#000000;fill-opacity:1;stroke:none;stroke-width:0.99999994;marker:none;visibility:visible;display:inline;overflow:visible;enable-background:accumulate" />
    <rect
       width="61.197754"
       height="19.76787"
       rx="3.8855712"
       ry="4.1616573"
       x="-62.514454"
       y="1.2539314"
       transform="scale(-1,1)"
       id="rect3803-9"
       style="opacity:0.35514018;color:#000000;fill:#000000;fill-opacity:1;stroke:none;stroke-width:0.99999994;marker:none;visibility:visible;display:inline;overflow:visible;enable-background:accumulate" />
    <rect
       width="60.144665"
       height="18.822802"
       rx="3.8187084"
       ry="3.9626954"
       x="-61.899956"
       y="1.7716398"
       transform="scale(-1,1)"
       id="rect3799-8"
       style="opacity:0.5373832;color:#000000;fill:#000000;fill-opacity:1;stroke:none;stroke-width:0.99999994;marker:none;visibility:visible;display:inline;overflow:visible;enable-background:accumulate" />
    <rect
       width="61.662514"
       height="19.116507"
       rx="3.9150801"
       ry="4.0245275"
       x="-62.810379"
       y="0.80696011"
       transform="scale(-1,1)"
       id="rect17456-1"
       style="color:#000000;fill:url(#linearGradient4351);fill-opacity:1;stroke:#0c0c0c;stroke-width:1.09726048;stroke-linecap:round;stroke-linejoin:miter;stroke-miterlimit:4;stroke-opacity:0.77956986;stroke-dasharray:none;stroke-dashoffset:0;marker:none;visibility:visible;display:inline;overflow:visible;enable-background:accumulate" />
    <path
       d="m 27.400457,0.98346523 8.060833,9.04225577 -7.05032,9.543754 31.073633,-0.170424 c 0,0 3.100836,-0.545358 3.166116,-3.03355 0.03997,-1.523748 0,-12.4409652 0,-12.4409652 0,0 -0.326403,-2.7608717 -3.45988,-2.897211 C 56.057364,0.89098542 27.400457,0.98346523 27.400457,0.98346523 z"
       id="path5209-3"
       style="fill:#181818;fill-opacity:1;stroke:none" />
    <path
       d="m 27.392552,1.3303558 8.29977,8.9019462 -7.622238,9.150862"
       id="path3795-3"
       style="fill:none;stroke:#151515;stroke-width:1.08945918px;stroke-linecap:round;stroke-linejoin:miter;stroke-opacity:1" />
    <rect
       width="1.9755003"
       height="5.3534117"
       rx="0.31309599"
       ry="0.47071692"
       x="9.4593353"
       y="7.3881259"
       id="rect5022-7"
       style="fill:#131313;fill-opacity:1;stroke:none" />
    <rect
       width="1.9755003"
       height="5.3534117"
       rx="0.31309599"
       ry="0.47071692"
       x="14.459335"
       y="7.4506259"
       id="rect3821-6"
       style="fill:#0f0f0f;fill-opacity:1;stroke:none" />
    <rect
       width="1.9755003"
       height="5.3534117"
       rx="0.31309599"
       ry="0.47071692"
       x="19.334335"
       y="7.4506259"
       id="rect3823-7"
       style="fill:#191919;fill-opacity:1;stroke:none" />
    <path
       d="m 29.076392,1.8673485 7.475468,8.3910565 -6.538337,8.856438 28.817115,-0.158151 c 0,0 2.875658,-0.506082 2.936197,-2.815081 0.03707,-1.414012 0,-11.5449998 0,-11.5449998 0,0 -0.3027,-2.5620412 -3.208629,-2.6885614 C 55.652279,1.7815287 29.076392,1.8673488 29.076392,1.8673488 z"
       id="path4220"
       style="opacity:0.2017544;fill:none;stroke:#ffffff;stroke-width:0.92768204;stroke-opacity:1" />
    <g
       transform="translate(0.2029453,0.52514897)"
       id="text3049"
       style="font-size:12px;font-style:normal;font-variant:normal;font-weight:500;font-stretch:normal;line-height:125%;letter-spacing:0px;word-spacing:0px;fill:#696969;fill-opacity:1;stroke:none;font-family:Ubuntu;-inkscape-font-specification:Ubuntu Medium">
      <path
         d="m 40.644636,10.42901 c -2e-6,0.456004 0.056,0.872003 0.168,1.248 0.111997,0.368002 0.271997,0.684002 0.48,0.948 0.215997,0.256002 0.475996,0.456001 0.78,0.6 0.303996,0.144001 0.647995,0.216001 1.032,0.216 0.375995,10e-7 0.715994,-0.072 1.02,-0.216 0.303994,-0.143999 0.559994,-0.343998 0.768,-0.6 0.215993,-0.263998 0.379993,-0.579998 0.492,-0.948 0.111993,-0.375997 0.167993,-0.791996 0.168,-1.248 -7e-6,-0.4559954 -0.05601,-0.867995 -0.168,-1.2360001 -0.112007,-0.3759942 -0.276007,-0.6919939 -0.492,-0.948 -0.208006,-0.2639933 -0.464006,-0.4679931 -0.768,-0.612 -0.304006,-0.1439928 -0.644005,-0.2159928 -1.02,-0.216 -0.384005,7.2e-6 -0.728004,0.072007 -1.032,0.216 -0.304004,0.1440069 -0.564003,0.3480067 -0.78,0.612 -0.208003,0.2640061 -0.368003,0.5800058 -0.48,0.948 -0.112002,0.3680051 -0.168002,0.7800047 -0.168,1.2360001 m 6.492,0 c -9e-6,0.712003 -0.108009,1.340003 -0.324,1.884 -0.208008,0.544002 -0.496008,1.000001 -0.864,1.368 -0.360007,0.360001 -0.784007,0.632 -1.272,0.816 -0.488006,0.184 -1.008005,0.276 -1.56,0.276 -0.552004,0 -1.076004,-0.092 -1.572,-0.276 -0.488003,-0.184 -0.916002,-0.455999 -1.284,-0.816 -0.360002,-0.367999 -0.648001,-0.823998 -0.864,-1.368 -0.216001,-0.543997 -0.324001,-1.171997 -0.324,-1.884 -1e-6,-0.7119952 0.107999,-1.3359946 0.324,-1.8720001 0.215999,-0.5439934 0.507998,-0.9999929 0.876,-1.368 0.375998,-0.3679922 0.807997,-0.6439919 1.296,-0.828 0.487996,-0.1839915 1.003996,-0.2759914 1.548,-0.276 0.543995,8.6e-6 1.059994,0.092008 1.548,0.276 0.487993,0.1840081 0.911993,0.4600078 1.272,0.828 0.367992,0.3680071 0.659992,0.8240066 0.876,1.368 0.215991,0.5360055 0.323991,1.1600049 0.324,1.8720001"
         id="path3832"
         style="fill:#696969;fill-opacity:1" />
      <path
         d="m 56.115636,5.2810099 c 0.335991,9.4e-6 0.631991,0.032009 0.888,0.096 0.25599,0.056009 0.44799,0.1080092 0.576,0.156 l -0.276,1.2 c -0.13601,-0.063992 -0.296009,-0.115992 -0.48,-0.156 -0.176009,-0.039992 -0.368009,-0.059992 -0.576,-0.06 -0.232008,8.1e-6 -0.428008,0.036008 -0.588,0.108 -0.160008,0.064008 -0.288008,0.1560079 -0.384,0.276 -0.09601,0.1200076 -0.164008,0.2680075 -0.204,0.444 -0.04001,0.1680071 -0.06001,0.3520069 -0.06,0.552 l 0,0.42 2.28,0 0,1.212 -2.28,0 0,5.0640001 -1.452,0 0,-6.7200001 c -6e-6,-0.8079924 0.211994,-1.4399918 0.636,-1.896 0.423993,-0.4639909 1.063992,-0.6959906 1.92,-0.696 m -4.848,0 c 0.335996,9.4e-6 0.631996,0.032009 0.888,0.096 0.255995,0.056009 0.447995,0.1080092 0.576,0.156 l -0.276,1.2 c -0.136005,-0.063992 -0.296005,-0.115992 -0.48,-0.156 -0.176004,-0.039992 -0.368004,-0.059992 -0.576,-0.06 -0.232004,8.1e-6 -0.428003,0.036008 -0.588,0.108 -0.160003,0.064008 -0.288003,0.1560079 -0.384,0.276 -0.096,0.1200076 -0.164003,0.2680075 -0.204,0.444 -0.04,0.1680071 -0.06,0.3520069 -0.06,0.552 l 0,0.42 2.28,0 0,1.212 -2.28,0 0,5.0640001 -1.452,0 0,-6.7200001 c -10e-7,-0.8079924 0.211999,-1.4399918 0.636,-1.896 0.423998,-0.4639909 1.063997,-0.6959906 1.92,-0.696"
         id="path3834"
         style="fill:#696969;fill-opacity:1" />
    </g>
  </g>
</svg>
