/* XPM */ 
static const unsigned char * bottom_xpm[] = {
"22 4 4 1",
" 	c None",
"!	c #EBEBEB",
"#	c #EAEAEA",
"$	c #DDDDDD",
"!!!!!!!!!!!!!!!!!!!!!!",
"!!!!!!!!!!!!!!!!!!!!!!",
"######################",
"$$$$$$$$$$$$$$$$$$$$$$"};