/* XPM */ 
static const unsigned char * bottom_left_xpm[] = {
"22 16 4 1",
" 	c None",
"!	c #DDDDDD",
"#	c #EBEBEB",
"$	c black",
"!#                    ",
"!#                    ",
"!#                    ",
"!#                    ",
"!#                    ",
"!#                    ",
"!#                    ",
"!#                    ",
"!#                    ",
"!#                    ",
"!#                    ",
"!#                    ",
"!#####################",
"!#####################",
" !####################",
"  !!!!!!!!!!!!!!!!!!!!"};