/* XPM */ 
static const unsigned char * bottom_right_xpm[] = {
"22 16 4 1",
" 	c None",
"!	c black",
"#	c #EBEBEB",
"$	c #DDDDDD",
"                    #$",
"                    #$",
"                    #$",
"                    #$",
"                    #$",
"                    #$",
"                    #$",
"                    #$",
"                    #$",
"                    #$",
"                    #$",
"                    #$",
"#####################$",
"#####################$",
"####################$ ",
"$$$$$$$$$$$$$$$$$$$$  "};