/* XPM */ 
static const unsigned char * title_n_xpm[] = {
"2 22 9 1",
" 	c None",
"!	c #DEDEDE",
"#	c #E6E6E6",
"$	c #E5E5E5",
"%	c #E7E7E7",
"&	c #E8E8E8",
"'	c #E9E9E9",
"(	c #EAEAEA",
")	c #EBEBEB",
"!!",
"##",
"##",
"$$",
"##",
"%%",
"##",
"%%",
"%%",
"&&",
"%%",
"&&",
"''",
"&&",
"''",
"''",
"((",
"''",
"((",
"))",
"))",
"))"};